<mxfile host="app.diagrams.net" modified="2023-12-15T13:08:59.446Z" agent="Mozilla/5.0 (Macintosh; Intel Mac OS X 10_15_7) AppleWebKit/605.1.15 (KHTML, like Gecko) Version/17.2 Safari/605.1.15" etag="9tqLpUZaUGeWgM5CCxi9" version="22.1.9" type="device">
  <diagram name="Page-1" id="1rRQEl7A50EhXOJ5wKcM">
    <mxGraphModel dx="2288" dy="840" grid="1" gridSize="10" guides="1" tooltips="1" connect="1" arrows="1" fold="1" page="1" pageScale="1" pageWidth="827" pageHeight="1169" math="0" shadow="0">
      <root>
        <mxCell id="0" />
        <mxCell id="1" parent="0" />
        <mxCell id="C5zl4J1hcLcSdbdTi1Un-2" value="" style="endArrow=none;html=1;rounded=0;edgeStyle=orthogonalEdgeStyle;fontSize=18;" edge="1" parent="1">
          <mxGeometry width="50" height="50" relative="1" as="geometry">
            <mxPoint x="-186" y="161" as="sourcePoint" />
            <mxPoint x="1054" y="161" as="targetPoint" />
          </mxGeometry>
        </mxCell>
        <mxCell id="C5zl4J1hcLcSdbdTi1Un-4" value="Информационный поток" style="text;html=1;strokeColor=none;fillColor=none;align=center;verticalAlign=middle;whiteSpace=wrap;rounded=0;fontSize=18;" vertex="1" parent="1">
          <mxGeometry x="-206" y="110" width="60" height="30" as="geometry" />
        </mxCell>
        <mxCell id="C5zl4J1hcLcSdbdTi1Un-5" value="Производственный поток" style="text;html=1;strokeColor=none;fillColor=none;align=center;verticalAlign=middle;whiteSpace=wrap;rounded=0;fontSize=18;" vertex="1" parent="1">
          <mxGeometry x="-206" y="390" width="60" height="30" as="geometry" />
        </mxCell>
        <mxCell id="C5zl4J1hcLcSdbdTi1Un-6" value="" style="endArrow=none;html=1;rounded=0;edgeStyle=orthogonalEdgeStyle;fontSize=18;" edge="1" parent="1">
          <mxGeometry width="50" height="50" relative="1" as="geometry">
            <mxPoint x="-186" y="441" as="sourcePoint" />
            <mxPoint x="1054" y="441" as="targetPoint" />
          </mxGeometry>
        </mxCell>
        <mxCell id="C5zl4J1hcLcSdbdTi1Un-7" value="timeline" style="text;html=1;strokeColor=none;fillColor=none;align=center;verticalAlign=middle;whiteSpace=wrap;rounded=0;fontSize=18;" vertex="1" parent="1">
          <mxGeometry x="-216" y="680" width="60" height="30" as="geometry" />
        </mxCell>
        <mxCell id="C5zl4J1hcLcSdbdTi1Un-8" value="" style="endArrow=none;html=1;rounded=0;edgeStyle=orthogonalEdgeStyle;fontSize=18;" edge="1" parent="1">
          <mxGeometry width="50" height="50" relative="1" as="geometry">
            <mxPoint x="-186" y="721" as="sourcePoint" />
            <mxPoint x="1054" y="721" as="targetPoint" />
          </mxGeometry>
        </mxCell>
        <mxCell id="C5zl4J1hcLcSdbdTi1Un-17" style="edgeStyle=orthogonalEdgeStyle;rounded=0;orthogonalLoop=1;jettySize=auto;html=1;entryX=0.5;entryY=0;entryDx=0;entryDy=0;" edge="1" parent="1" source="C5zl4J1hcLcSdbdTi1Un-9" target="C5zl4J1hcLcSdbdTi1Un-11">
          <mxGeometry relative="1" as="geometry" />
        </mxCell>
        <mxCell id="C5zl4J1hcLcSdbdTi1Un-9" value="Добавить новое &lt;br&gt;на сайт" style="rounded=0;whiteSpace=wrap;html=1;fontSize=18;" vertex="1" parent="1">
          <mxGeometry x="-96" y="40" width="250" height="110" as="geometry" />
        </mxCell>
        <mxCell id="C5zl4J1hcLcSdbdTi1Un-10" value="Залить только&lt;br&gt;прод на продакшн" style="rounded=0;whiteSpace=wrap;html=1;fontSize=18;" vertex="1" parent="1">
          <mxGeometry x="814" y="40" width="250" height="110" as="geometry" />
        </mxCell>
        <mxCell id="C5zl4J1hcLcSdbdTi1Un-18" style="edgeStyle=orthogonalEdgeStyle;rounded=0;orthogonalLoop=1;jettySize=auto;html=1;" edge="1" parent="1" source="C5zl4J1hcLcSdbdTi1Un-11">
          <mxGeometry relative="1" as="geometry">
            <mxPoint x="244" y="310" as="targetPoint" />
          </mxGeometry>
        </mxCell>
        <mxCell id="C5zl4J1hcLcSdbdTi1Un-20" style="edgeStyle=orthogonalEdgeStyle;rounded=0;orthogonalLoop=1;jettySize=auto;html=1;entryX=0;entryY=0.5;entryDx=0;entryDy=0;" edge="1" parent="1" source="C5zl4J1hcLcSdbdTi1Un-11" target="C5zl4J1hcLcSdbdTi1Un-15">
          <mxGeometry relative="1" as="geometry" />
        </mxCell>
        <mxCell id="C5zl4J1hcLcSdbdTi1Un-11" value="Написать код&lt;br&gt;в VSCode" style="rounded=0;whiteSpace=wrap;html=1;fontSize=18;" vertex="1" parent="1">
          <mxGeometry x="-71" y="330" width="200" height="90" as="geometry" />
        </mxCell>
        <mxCell id="C5zl4J1hcLcSdbdTi1Un-19" style="edgeStyle=orthogonalEdgeStyle;rounded=0;orthogonalLoop=1;jettySize=auto;html=1;" edge="1" parent="1" source="C5zl4J1hcLcSdbdTi1Un-12" target="C5zl4J1hcLcSdbdTi1Un-13">
          <mxGeometry relative="1" as="geometry" />
        </mxCell>
        <mxCell id="C5zl4J1hcLcSdbdTi1Un-12" value="Сделать&lt;br&gt;git push" style="rounded=0;whiteSpace=wrap;html=1;fontSize=18;" vertex="1" parent="1">
          <mxGeometry x="174" y="210" width="200" height="90" as="geometry" />
        </mxCell>
        <mxCell id="C5zl4J1hcLcSdbdTi1Un-13" value="Запушить &lt;br&gt;на гитхаб" style="rounded=0;whiteSpace=wrap;html=1;fontSize=18;" vertex="1" parent="1">
          <mxGeometry x="324" y="40" width="250" height="110" as="geometry" />
        </mxCell>
        <mxCell id="C5zl4J1hcLcSdbdTi1Un-15" value="local build&lt;br&gt;for prod" style="rounded=0;whiteSpace=wrap;html=1;fontSize=18;" vertex="1" parent="1">
          <mxGeometry x="414" y="330" width="200" height="90" as="geometry" />
        </mxCell>
        <mxCell id="C5zl4J1hcLcSdbdTi1Un-22" style="edgeStyle=orthogonalEdgeStyle;rounded=0;orthogonalLoop=1;jettySize=auto;html=1;entryX=0.5;entryY=1;entryDx=0;entryDy=0;" edge="1" parent="1" source="C5zl4J1hcLcSdbdTi1Un-16" target="C5zl4J1hcLcSdbdTi1Un-10">
          <mxGeometry relative="1" as="geometry" />
        </mxCell>
        <mxCell id="C5zl4J1hcLcSdbdTi1Un-16" value="скопировать&lt;br&gt;на сайт" style="rounded=0;whiteSpace=wrap;html=1;fontSize=18;" vertex="1" parent="1">
          <mxGeometry x="734" y="320" width="250" height="90" as="geometry" />
        </mxCell>
        <mxCell id="C5zl4J1hcLcSdbdTi1Un-21" style="edgeStyle=orthogonalEdgeStyle;rounded=0;orthogonalLoop=1;jettySize=auto;html=1;entryX=0.04;entryY=0.611;entryDx=0;entryDy=0;entryPerimeter=0;" edge="1" parent="1" source="C5zl4J1hcLcSdbdTi1Un-15" target="C5zl4J1hcLcSdbdTi1Un-16">
          <mxGeometry relative="1" as="geometry" />
        </mxCell>
        <mxCell id="C5zl4J1hcLcSdbdTi1Un-24" value="1 час" style="rounded=0;whiteSpace=wrap;html=1;fontSize=18;" vertex="1" parent="1">
          <mxGeometry x="-76" y="600" width="200" height="90" as="geometry" />
        </mxCell>
        <mxCell id="C5zl4J1hcLcSdbdTi1Un-25" value="3 мин" style="rounded=0;whiteSpace=wrap;html=1;fontSize=18;" vertex="1" parent="1">
          <mxGeometry x="174" y="600" width="160" height="90" as="geometry" />
        </mxCell>
        <mxCell id="C5zl4J1hcLcSdbdTi1Un-26" value="5 мин" style="rounded=0;whiteSpace=wrap;html=1;fontSize=18;" vertex="1" parent="1">
          <mxGeometry x="414" y="590" width="200" height="90" as="geometry" />
        </mxCell>
        <mxCell id="C5zl4J1hcLcSdbdTi1Un-27" value="15 мин" style="rounded=0;whiteSpace=wrap;html=1;fontSize=18;" vertex="1" parent="1">
          <mxGeometry x="734" y="590" width="250" height="90" as="geometry" />
        </mxCell>
      </root>
    </mxGraphModel>
  </diagram>
</mxfile>
